<?xml version="1.0" encoding="UTF-8"?>
<svg width="1370" height="350" version="1.1" viewBox="0 0 1370 350" xmlns="http://www.w3.org/2000/svg">
 <g transform="translate(-128 -52.5)" fill-rule="evenodd">
  <g fill="#c03" shape-rendering="auto">
   <path transform="translate(128 52.5)" d="m1245 100c-68.7 0-125 56.3-125 125 0 68.7 56.3 125 125 125 68.7 0 125-56.3 125-125 0-68.7-56.3-125-125-125zm0 50c41.7 0 75 33.3 75 75 0 41.7-33.3 75-75 75-41.7 0-75-33.3-75-75 0-41.7 33.3-75 75-75z" color="#000000" color-rendering="auto" dominant-baseline="auto" image-rendering="auto" solid-color="#000000" stop-color="#000000" style="font-feature-settings:normal;font-variant-alternates:normal;font-variant-caps:normal;font-variant-east-asian:normal;font-variant-ligatures:normal;font-variant-numeric:normal;font-variant-position:normal;font-variation-settings:normal;inline-size:0;isolation:auto;mix-blend-mode:normal;shape-margin:0;shape-padding:0;text-decoration-color:#000000;text-decoration-line:none;text-decoration-style:solid;text-indent:0;text-orientation:mixed;text-transform:none;white-space:normal"/>
   <path transform="translate(128 52.5)" d="m1045 100c-68.7 0-125 56.3-125 125v125h50v-125c0-41.7 33.3-75 75-75 20.9 0 39.4 8.37 53 22l35.4-35.4c-22.6-22.6-54-36.6-88.4-36.6z" color="#000000" color-rendering="auto" dominant-baseline="auto" image-rendering="auto" solid-color="#000000" stop-color="#000000" style="font-feature-settings:normal;font-variant-alternates:normal;font-variant-caps:normal;font-variant-east-asian:normal;font-variant-ligatures:normal;font-variant-numeric:normal;font-variant-position:normal;font-variation-settings:normal;inline-size:0;isolation:auto;mix-blend-mode:normal;shape-margin:0;shape-padding:0;text-decoration-color:#000000;text-decoration-line:none;text-decoration-style:solid;text-indent:0;text-orientation:mixed;text-transform:none;white-space:normal"/>
   <path transform="translate(128 52.5)" d="m845 100c-68.7 0-125 56.3-125 125v125h50v-125c0-41.7 33.3-75 75-75 20.9 0 39.4 8.37 53 22l35.4-35.4c-22.6-22.6-54-36.6-88.4-36.6z" color="#000000" color-rendering="auto" dominant-baseline="auto" image-rendering="auto" solid-color="#000000" stop-color="#000000" style="font-feature-settings:normal;font-variant-alternates:normal;font-variant-caps:normal;font-variant-east-asian:normal;font-variant-ligatures:normal;font-variant-numeric:normal;font-variant-position:normal;font-variation-settings:normal;inline-size:0;isolation:auto;mix-blend-mode:normal;shape-margin:0;shape-padding:0;text-decoration-color:#000000;text-decoration-line:none;text-decoration-style:solid;text-indent:0;text-orientation:mixed;text-transform:none;white-space:normal"/>
   <path transform="translate(128 52.5)" d="m565 100c-68.7 0-125 56.3-125 125s56.3 125 125 125c8.56 0 16.9-0.892 25-2.55v-51.7c-7.81 2.72-16.2 4.2-25 4.2-41.7 0-75-33.3-75-75s33.3-75 75-75c23.3 0 44 10.4 57.7 26.8 10.8 13 17.3 29.8 17.3 48.2 0 8.79-1.48 17.2-4.2 25h51.7c1.66-8.09 2.55-16.4 2.55-25 0-68.7-56.3-125-125-125z" color="#000000" color-rendering="auto" dominant-baseline="auto" image-rendering="auto" solid-color="#000000" stop-color="#000000" style="font-feature-settings:normal;font-variant-alternates:normal;font-variant-caps:normal;font-variant-east-asian:normal;font-variant-ligatures:normal;font-variant-numeric:normal;font-variant-position:normal;font-variation-settings:normal;inline-size:0;isolation:auto;mix-blend-mode:normal;shape-margin:0;shape-padding:0;text-decoration-color:#000000;text-decoration-line:none;text-decoration-style:solid;text-indent:0;text-orientation:mixed;text-transform:none;white-space:normal"/>
   <path transform="translate(128 52.5)" d="m205 100c-68.7 0-125 56.3-125 125v125h50v-125c0-41.7 33.3-75 75-75 41.7 0 75 33.3 75 75v125h50v-125c0-68.7-56.3-125-125-125z" color="#000000" color-rendering="auto" dominant-baseline="auto" image-rendering="auto" solid-color="#000000" stop-color="#000000" style="font-feature-settings:normal;font-variant-alternates:normal;font-variant-caps:normal;font-variant-east-asian:normal;font-variant-ligatures:normal;font-variant-numeric:normal;font-variant-position:normal;font-variation-settings:normal;inline-size:0;isolation:auto;mix-blend-mode:normal;shape-margin:0;shape-padding:0;text-decoration-color:#000000;text-decoration-line:none;text-decoration-style:solid;text-indent:0;text-orientation:mixed;text-transform:none;white-space:normal"/>
   <path transform="translate(128 52.5)" d="m360 25v50h-50v50h50v225h50v-225h50v-50h-50v-50z" color="#000000" color-rendering="auto" dominant-baseline="auto" image-rendering="auto" solid-color="#000000" stop-color="#000000" style="font-feature-settings:normal;font-variant-alternates:normal;font-variant-caps:normal;font-variant-east-asian:normal;font-variant-ligatures:normal;font-variant-numeric:normal;font-variant-position:normal;font-variation-settings:normal;inline-size:0;isolation:auto;mix-blend-mode:normal;shape-margin:0;shape-padding:0;text-decoration-color:#000000;text-decoration-line:none;text-decoration-style:solid;text-indent:0;text-orientation:mixed;text-transform:none;white-space:normal"/>
   <path transform="translate(128 52.5)" d="m0 0v350h50v-350z" color="#000000" color-rendering="auto" dominant-baseline="auto" image-rendering="auto" solid-color="#000000" stop-color="#000000" style="font-feature-settings:normal;font-variant-alternates:normal;font-variant-caps:normal;font-variant-east-asian:normal;font-variant-ligatures:normal;font-variant-numeric:normal;font-variant-position:normal;font-variation-settings:normal;inline-size:0;isolation:auto;mix-blend-mode:normal;shape-margin:0;shape-padding:0;text-decoration-color:#000000;text-decoration-line:none;text-decoration-style:solid;text-indent:0;text-orientation:mixed;text-transform:none;white-space:normal"/>
  </g>
  <circle cx="693" cy="277" r="50" fill="#ff8000" stop-color="#000000" style="font-variation-settings:normal;paint-order:markers stroke fill"/>
  <circle cx="1373" cy="277" r="50" fill="#ff8000" stop-color="#000000" style="font-variation-settings:normal;paint-order:markers stroke fill"/>
 </g>
</svg>
