<?xml version="1.0" encoding="UTF-8"?>
<svg width="1280" height="640" version="1.1" viewBox="0 0 1280 640" xmlns="http://www.w3.org/2000/svg">
 <defs>
  <clipPath id="clipPath934">
   <rect width="1280" height="640" fill="#e6e6e6" stop-color="#000000" style="paint-order:markers stroke fill"/>
  </clipPath>
 </defs>
 <rect width="1280" height="640" fill="#eee" stop-color="#000000" style="paint-order:markers stroke fill"/>
 <g clip-path="url(#clipPath934)">
  <path transform="matrix(1.92 0 0 1.92 -496 -285)" d="m690 314a98.5 98.5 0 0 1-98.5 98.5 98.5 98.5 0 0 1-98.5-98.5 98.5 98.5 0 0 1 98.5-98.5 98.5 98.5 0 0 1 98.5 98.5zm-98.5-245c-135 0-246 111-246 246 0 135 111 246 246 246 16.9 0 33.3-1.76 49.2-5.02v-102c-15.4 5.36-31.9 8.27-49.2 8.27-82.1 0-148-65.6-148-148 0-82.1 65.6-148 148-148 45.9 0 86.7 20.5 114 52.8 21.3 25.6 34.1 58.7 34.1 94.9 0 17.3-2.91 33.9-8.27 49.2h102c3.27-15.9 5.02-32.3 5.02-49.2 0-135-111-246-246-246z" fill="#ccc" stop-color="#000000" stroke-width=".553" style="font-variation-settings:normal;paint-order:markers stroke fill"/>
 </g>
 <g transform="matrix(.819 0 0 .819 -25.8 54.7)" fill-rule="evenodd">
  <g fill="#c03" shape-rendering="auto" stroke-width="1.38">
   <path transform="translate(128,52.5)" d="m1245 100c-68.7 0-125 56.3-125 125s56.3 125 125 125 125-56.3 125-125-56.3-125-125-125zm0 50c41.7 0 75 33.3 75 75s-33.3 75-75 75-75-33.3-75-75 33.3-75 75-75z" color="#000000" color-rendering="auto" dominant-baseline="auto" image-rendering="auto" solid-color="#000000" stop-color="#000000" style="font-feature-settings:normal;font-variant-alternates:normal;font-variant-caps:normal;font-variant-east-asian:normal;font-variant-ligatures:normal;font-variant-numeric:normal;font-variant-position:normal;font-variation-settings:normal;inline-size:0;isolation:auto;mix-blend-mode:normal;shape-margin:0;shape-padding:0;text-decoration-color:#000000;text-decoration-line:none;text-decoration-style:solid;text-indent:0;text-orientation:mixed;text-transform:none;white-space:normal"/>
   <path transform="translate(128,52.5)" d="m1045 100c-68.7 0-125 56.3-125 125v125h50v-125c0-41.7 33.3-75 75-75 20.9 0 39.4 8.37 53 22l35.4-35.4c-22.6-22.6-54-36.6-88.4-36.6z" color="#000000" color-rendering="auto" dominant-baseline="auto" image-rendering="auto" solid-color="#000000" stop-color="#000000" style="font-feature-settings:normal;font-variant-alternates:normal;font-variant-caps:normal;font-variant-east-asian:normal;font-variant-ligatures:normal;font-variant-numeric:normal;font-variant-position:normal;font-variation-settings:normal;inline-size:0;isolation:auto;mix-blend-mode:normal;shape-margin:0;shape-padding:0;text-decoration-color:#000000;text-decoration-line:none;text-decoration-style:solid;text-indent:0;text-orientation:mixed;text-transform:none;white-space:normal"/>
   <path transform="translate(128,52.5)" d="m845 100c-68.7 0-125 56.3-125 125v125h50v-125c0-41.7 33.3-75 75-75 20.9 0 39.4 8.37 53 22l35.4-35.4c-22.6-22.6-54-36.6-88.4-36.6z" color="#000000" color-rendering="auto" dominant-baseline="auto" image-rendering="auto" solid-color="#000000" stop-color="#000000" style="font-feature-settings:normal;font-variant-alternates:normal;font-variant-caps:normal;font-variant-east-asian:normal;font-variant-ligatures:normal;font-variant-numeric:normal;font-variant-position:normal;font-variation-settings:normal;inline-size:0;isolation:auto;mix-blend-mode:normal;shape-margin:0;shape-padding:0;text-decoration-color:#000000;text-decoration-line:none;text-decoration-style:solid;text-indent:0;text-orientation:mixed;text-transform:none;white-space:normal"/>
   <path transform="translate(128,52.5)" d="m565 100c-68.7 0-125 56.3-125 125s56.3 125 125 125c8.56 0 16.9-0.892 25-2.55v-51.7c-7.81 2.72-16.2 4.2-25 4.2-41.7 0-75-33.3-75-75s33.3-75 75-75c23.3 0 44 10.4 57.7 26.8 10.8 13 17.3 29.8 17.3 48.2 0 8.79-1.48 17.2-4.2 25h51.7c1.66-8.09 2.55-16.4 2.55-25 0-68.7-56.3-125-125-125z" color="#000000" color-rendering="auto" dominant-baseline="auto" image-rendering="auto" solid-color="#000000" stop-color="#000000" style="font-feature-settings:normal;font-variant-alternates:normal;font-variant-caps:normal;font-variant-east-asian:normal;font-variant-ligatures:normal;font-variant-numeric:normal;font-variant-position:normal;font-variation-settings:normal;inline-size:0;isolation:auto;mix-blend-mode:normal;shape-margin:0;shape-padding:0;text-decoration-color:#000000;text-decoration-line:none;text-decoration-style:solid;text-indent:0;text-orientation:mixed;text-transform:none;white-space:normal"/>
   <path transform="translate(128,52.5)" d="m205 100c-68.7 0-125 56.3-125 125v125h50v-125c0-41.7 33.3-75 75-75s75 33.3 75 75v125h50v-125c0-68.7-56.3-125-125-125z" color="#000000" color-rendering="auto" dominant-baseline="auto" image-rendering="auto" solid-color="#000000" stop-color="#000000" style="font-feature-settings:normal;font-variant-alternates:normal;font-variant-caps:normal;font-variant-east-asian:normal;font-variant-ligatures:normal;font-variant-numeric:normal;font-variant-position:normal;font-variation-settings:normal;inline-size:0;isolation:auto;mix-blend-mode:normal;shape-margin:0;shape-padding:0;text-decoration-color:#000000;text-decoration-line:none;text-decoration-style:solid;text-indent:0;text-orientation:mixed;text-transform:none;white-space:normal"/>
   <path transform="translate(128,52.5)" d="m360 25v50h-50v50h50v225h50v-225h50v-50h-50v-50z" color="#000000" color-rendering="auto" dominant-baseline="auto" image-rendering="auto" solid-color="#000000" stop-color="#000000" style="font-feature-settings:normal;font-variant-alternates:normal;font-variant-caps:normal;font-variant-east-asian:normal;font-variant-ligatures:normal;font-variant-numeric:normal;font-variant-position:normal;font-variation-settings:normal;inline-size:0;isolation:auto;mix-blend-mode:normal;shape-margin:0;shape-padding:0;text-decoration-color:#000000;text-decoration-line:none;text-decoration-style:solid;text-indent:0;text-orientation:mixed;text-transform:none;white-space:normal"/>
   <path transform="translate(128,52.5)" d="m0 0v350h50v-350z" color="#000000" color-rendering="auto" dominant-baseline="auto" image-rendering="auto" solid-color="#000000" stop-color="#000000" style="font-feature-settings:normal;font-variant-alternates:normal;font-variant-caps:normal;font-variant-east-asian:normal;font-variant-ligatures:normal;font-variant-numeric:normal;font-variant-position:normal;font-variation-settings:normal;inline-size:0;isolation:auto;mix-blend-mode:normal;shape-margin:0;shape-padding:0;text-decoration-color:#000000;text-decoration-line:none;text-decoration-style:solid;text-indent:0;text-orientation:mixed;text-transform:none;white-space:normal"/>
  </g>
  <circle cx="693" cy="277" r="50" fill="#ff8000" stop-color="#000000" stroke-width="1.3" style="font-variation-settings:normal;paint-order:markers stroke fill"/>
  <circle cx="1373" cy="277" r="50" fill="#ff8000" stop-color="#000000" stroke-width="1.3" style="font-variation-settings:normal;paint-order:markers stroke fill"/>
 </g>
 <g transform="translate(-.583)" fill="#444" aria-label="Tanné de Microsoft Forms?!">
  <path d="m375 447 0.44-6.74 0.595-14 0.198-6.45q-5.4 0.022-9.45 0.198 0.132-1.76 0.154-3.1 5.59 0.022 12.1 0.022l7.05-0.022h3.74q-0.154 1.94-0.154 3.08-3.41-0.198-7.55-0.198h-1.81l-0.462 9.76-0.462 13.7v3.68l-2.11-0.044q-0.286 0-2.25 0.044z"/>
  <path d="m394 428q0.198-0.969 0.418-2.86 2.64-0.683 4.58-0.925 1.96-0.264 3.81-0.264 1.98 0 3.7 0.374 1.74 0.352 2.88 1.17 1.15 0.815 1.52 1.87t0.374 2.27q0 1.52-0.242 5.11-0.22 3.57-0.352 6.61-0.11 3.04-0.11 5.42-1.19-0.044-1.94-0.044-0.705 0-2 0.044l0.462-6.01 0.33-7.11q-0.771 0.595-1.17 0.837-0.374 0.242-0.859 0.462-0.484 0.198-1.08 0.396-0.573 0.176-2.27 0.639-1.67 0.462-2.38 0.705-1.52 0.484-2.4 0.969-0.881 0.484-1.48 1.06t-0.837 1.15q-0.286 0.705-0.286 1.48 0 1.19 0.705 2.07 0.705 0.881 1.76 1.23 1.08 0.33 2.58 0.33 0.925 0 1.94-0.132 1.01-0.132 2.71-0.683-0.308 0.859-0.705 2.64-1.61 0.308-2.62 0.374-1.01 0.0881-1.92 0.0881-3.02 0-4.71-0.705-1.7-0.705-2.53-2.14-0.837-1.45-0.837-3.15 0-0.991 0.286-1.83 0.308-0.837 0.815-1.52 0.506-0.683 1.43-1.37 0.947-0.683 1.96-1.12 1.03-0.44 2.4-0.859 1.37-0.44 4.38-1.17 0.969-0.22 1.65-0.44 0.683-0.242 1.21-0.462 0.528-0.22 0.925-0.506 0.396-0.308 0.727-0.727 0.33-0.44 0.484-0.881 0.154-0.44 0.154-0.881 0-1.08-0.705-1.85t-1.85-1.08q-1.12-0.308-2.66-0.308-1.43 0-2.95 0.242-1.5 0.22-2.6 0.551-1.08 0.308-2.71 0.947z"/>
  <path d="m416 447q1.06-13.8 1.1-22.3l1.98 0.022q0.727 0 1.92-0.022l-0.286 4.4q0.551-0.925 0.881-1.41 0.33-0.506 0.881-1.06 0.551-0.551 1.3-1.01 0.749-0.484 1.76-0.793 1.01-0.33 2.05-0.484 1.06-0.154 2.09-0.154 1.89 0 3.66 0.462 1.76 0.462 2.88 1.52 1.15 1.03 1.52 2.33 0.396 1.3 0.396 2.8 0 0.286-0.022 1.1-0.022 0.815-0.0881 2.14l-0.44 9.23q-0.0441 1.32-0.0661 3.24-0.991-0.044-1.87-0.044-1.08 0-2.03 0.044 0.22-2.66 0.33-5.13l0.286-5.13q0.132-2.64 0.132-3.99 0-1.94-0.661-3.08-0.661-1.17-2.11-1.78-1.45-0.639-3.26-0.639-2.55 0-4.38 1.21-1.67 1.12-2.6 3.19-0.639 1.48-0.903 4.36-0.33 3.46-0.462 11-1.23-0.044-1.92-0.044t-2.07 0.044z"/>
  <path d="m443 447q1.06-13.8 1.1-22.3l1.98 0.022q0.727 0 1.92-0.022l-0.286 4.4q0.551-0.925 0.881-1.41 0.33-0.506 0.881-1.06t1.3-1.01q0.749-0.484 1.76-0.793 1.01-0.33 2.05-0.484 1.06-0.154 2.09-0.154 1.89 0 3.66 0.462 1.76 0.462 2.88 1.52 1.15 1.03 1.52 2.33 0.396 1.3 0.396 2.8 0 0.286-0.022 1.1-0.022 0.815-0.0881 2.14l-0.44 9.23q-0.044 1.32-0.0661 3.24-0.991-0.044-1.87-0.044-1.08 0-2.03 0.044 0.22-2.66 0.33-5.13l0.286-5.13q0.132-2.64 0.132-3.99 0-1.94-0.661-3.08-0.661-1.17-2.11-1.78-1.45-0.639-3.26-0.639-2.55 0-4.38 1.21-1.67 1.12-2.6 3.19-0.639 1.48-0.903 4.36-0.33 3.46-0.462 11-1.23-0.044-1.92-0.044t-2.07 0.044z"/>
  <path d="m489 443q-0.264 1.21-0.528 3.08-2.11 0.528-3.68 0.705-1.54 0.198-3.08 0.198-2.75 0-4.95-0.661-2.18-0.661-3.74-2.29-1.56-1.65-2.25-3.77-0.683-2.11-0.683-4.47 0-3.28 1.26-6.08 1.26-2.82 3.77-4.43 2.53-1.61 6.41-1.61 2 0 3.83 0.595 1.83 0.573 3.04 1.76 1.21 1.19 1.87 2.95 0.661 1.74 0.661 3.81 0 0.793-0.132 1.54h-16.8q-0.0881 1.21-0.0881 1.85 0 2.31 0.969 4.27 0.969 1.94 2.86 2.95 1.89 0.991 4.36 0.991 2.84 0 6.91-1.41zm-14.8-10.5h13.1q-0.022-1.39-0.176-2.16-0.154-0.771-0.573-1.59-0.418-0.837-1.15-1.43-0.705-0.617-1.72-0.925-0.991-0.33-2.16-0.33-1.26 0-2.4 0.352-1.12 0.352-2 0.969-0.859 0.617-1.48 1.45-0.595 0.815-0.903 1.59-0.286 0.771-0.573 2.07zm5.06-11.2 2.03-5.77q1.08 0.044 2.22 0.044 1.03 0 2.25-0.044-1.45 2.05-3.81 5.77-0.617-0.044-1.37-0.044-0.727 0-1.32 0.044z"/>
  <path d="m527 447q-1.3-0.044-1.81-0.044-0.551 0-1.92 0.044l0.264-4.76q-0.705 1.23-1.21 1.92-0.506 0.661-1.21 1.26-0.683 0.595-1.61 1.08-0.903 0.462-2.03 0.727t-2.38 0.264q-2.14 0-4.01-0.771-1.85-0.771-3.15-2.2-1.3-1.43-1.87-3.33-0.573-1.92-0.573-3.99 0-2.77 1.08-5.46 1.08-2.69 3.04-4.43 1.98-1.76 4.47-2.44 2.49-0.683 5.28-0.683 1.94 0 4.6 0.44 0.11-2.4 0.11-3.99 0-2.29-0.022-3.7l2 0.022q0.749 0 2-0.022l-0.639 12.4-0.44 14.2zm-3.17-19.6q-1.32-0.396-2.27-0.506-0.925-0.11-1.81-0.11-2.11 0-4.05 0.617-1.92 0.595-3.39 1.98-1.45 1.39-2.25 3.52-0.793 2.14-0.793 4.18 0 2.05 0.749 3.83 0.749 1.76 2.31 2.77 1.59 0.991 3.68 0.991 1.26 0 2.29-0.33 1.03-0.352 1.87-1.01 0.859-0.661 1.61-1.78 0.749-1.12 1.19-2.6 0.374-1.3 0.551-3.5 0.0881-1.08 0.198-4.16z"/>
  <path d="m551 443q-0.264 1.21-0.528 3.08-2.11 0.528-3.68 0.705-1.54 0.198-3.08 0.198-2.75 0-4.95-0.661-2.18-0.661-3.74-2.29-1.56-1.65-2.25-3.77-0.683-2.11-0.683-4.47 0-3.28 1.26-6.08 1.26-2.82 3.77-4.43 2.53-1.61 6.41-1.61 2 0 3.83 0.595 1.83 0.573 3.04 1.76t1.87 2.95q0.661 1.74 0.661 3.81 0 0.793-0.132 1.54h-16.8q-0.0881 1.21-0.0881 1.85 0 2.31 0.969 4.27 0.969 1.94 2.86 2.95 1.89 0.991 4.36 0.991 2.84 0 6.91-1.41zm-14.8-10.5h13.1q-0.022-1.39-0.176-2.16-0.154-0.771-0.573-1.59-0.418-0.837-1.15-1.43-0.705-0.617-1.72-0.925-0.991-0.33-2.16-0.33-1.26 0-2.4 0.352-1.12 0.352-2 0.969-0.859 0.617-1.48 1.45-0.595 0.815-0.903 1.59-0.286 0.771-0.573 2.07z"/>
  <path d="m568 447 0.462-4.07 1.37-16.4 0.661-9.58q1.67 0.022 2.91 0.022 1.15 0 2.77-0.022l0.506 1.92q0.22 0.771 0.551 1.81t1.15 3.46l2.71 7.82 3.37 10.5 4.38-10.5 5-11.5q0.264-0.617 0.506-1.3 0.264-0.705 0.815-2.25 1.43 0.022 2.97 0.022 1.23 0 2.82-0.022l-0.286 10.5-0.11 6.89q-0.022 0.969-0.022 1.94l0.022 5.04v2.84q0 0.484 0.044 2.84-1.45-0.044-1.94-0.044-0.683 0-2 0.044l0.132-2.8 0.33-15.9q0.0661-2.66 0.0661-5.92l-0.022-1.81-9.67 23.2-1.28 3.19q-1.43-0.044-2-0.044-0.683 0-2.11 0.044l-2.62-8.3-2.71-8.17-2.69-7.88q-0.176-0.528-0.595-1.89l-0.264 2.58-1.32 18.9q-0.044 0.947-0.0881 1.89-0.022 0.947-0.0661 2.84l-1.85-0.044q-0.44 0-1.89 0.044z"/>
  <path d="m607 420q0.0661-2.07 0.0661-3.13 1.21 0.044 2.14 0.044 1.17 0 2.11-0.044-0.044 0.683-0.132 3.13-1.19-0.022-2.05-0.022t-2.14 0.022zm-0.991 27.1 0.374-5.55 0.418-9.47 0.176-7.29 2.03 0.022 1.98-0.022q-0.242 3.44-0.44 7.2-0.198 3.74-0.33 8.19-0.11 4.45-0.11 6.91-1.39-0.044-1.98-0.044-0.551 0-2.11 0.044z"/>
  <path d="m633 444q-0.044 0.352-0.242 1.32-0.176 0.947-0.308 1.87-1.61 0.374-3.1 0.506-1.48 0.132-2.6 0.132-2.38 0-4.4-0.639-2-0.639-3.5-2.09-1.5-1.48-2.2-3.63-0.705-2.18-0.705-4.58 0-3.24 1.15-6.14 1.15-2.91 3.61-4.56 2.47-1.65 6.72-1.65 3.13 0 6.1 0.837 0.132 1.87 0.242 3.08-2.09-0.661-3.41-0.881-1.32-0.242-2.44-0.242-1.94 0-3.48 0.705-1.52 0.705-2.6 2-1.08 1.3-1.56 3.08-0.462 1.78-0.462 3.63 0 2.49 0.771 4.36 0.771 1.87 2.69 2.91 1.94 1.01 4.34 1.01 2.33 0 5.42-1.03z"/>
  <path d="m638 447q0.793-12.7 0.793-20.3l-0.022-2.03q1.12 0.022 1.85 0.022 0.837 0 1.87-0.022l-0.176 3.66q0.815-1.37 1.43-2.05 0.639-0.705 1.43-1.15 0.793-0.462 1.78-0.705 1.01-0.264 2.09-0.264 0.925 0 1.83 0.22 0.022 1.45 0.154 3.26-1.37-0.374-2.44-0.374-1.3 0-2.33 0.44-1.03 0.418-1.87 1.3-0.815 0.859-1.34 2.07-0.44 0.969-0.683 2.51-0.22 1.54-0.352 5.62-0.0881 2.97-0.0881 6.3v1.48q-1.19-0.044-1.92-0.044-0.661 0-2 0.044z"/>
  <path d="m665 424q2.31 0 4.4 0.661 2.09 0.661 3.61 2.09 1.54 1.43 2.33 3.61 0.793 2.18 0.793 4.6 0 2.62-0.859 5.02-0.837 2.4-2.38 4.07-1.52 1.67-3.74 2.47-2.2 0.771-4.73 0.771-2.36 0-4.45-0.705-2.09-0.705-3.63-2.2-1.52-1.5-2.31-3.66-0.793-2.18-0.793-4.56 0-3.59 1.45-6.45 1.45-2.88 4.27-4.29 2.82-1.43 6.03-1.43zm-0.0881 2.8q-2.25 0-4.14 1.12-1.87 1.12-2.77 3.39-0.903 2.25-0.903 4.91 0 2.33 0.749 4.21 0.749 1.85 2.47 2.99 1.72 1.15 4.14 1.15 1.65 0 3.13-0.551 1.48-0.573 2.58-1.87 1.1-1.3 1.63-3.17 0.528-1.89 0.528-3.96 0-1.94-0.528-3.63-0.528-1.7-1.63-2.71-1.08-1.03-2.47-1.45-1.37-0.418-2.77-0.418z"/>
  <path d="m679 446-0.132-1.61q0-0.264-0.176-1.67 3.39 1.48 6.25 1.48 1.5 0 2.53-0.396 1.03-0.396 1.54-1.17 0.528-0.793 0.528-1.63 0-0.462-0.154-0.925-0.132-0.462-0.418-0.881-0.286-0.44-0.859-0.947-0.551-0.528-2.33-1.96-1.76-1.43-2.69-2.22-0.903-0.815-1.56-1.65-0.639-0.859-0.947-1.72t-0.308-1.74q0-1.41 0.881-2.73 0.903-1.32 2.58-1.96 1.7-0.661 3.96-0.661 2.53 0 5.57 0.595 0.0881 1.72 0.22 3.15-2.47-1.01-4.87-1.01-1.3 0-2.42 0.352-1.1 0.33-1.63 1.01-0.506 0.683-0.506 1.5 0 0.528 0.176 1.01 0.176 0.484 0.617 1.06 0.462 0.551 1.1 1.1t2.53 2.07q1.92 1.52 2.62 2.25t1.21 1.5q0.506 0.771 0.727 1.54 0.242 0.749 0.242 1.54 0 1.54-0.925 2.86-0.903 1.32-2.71 2.05-1.81 0.727-4.05 0.727-0.947 0-2.22-0.132-1.28-0.11-2.18-0.286-0.881-0.154-2.2-0.484z"/>
  <path d="m709 424q2.31 0 4.4 0.661 2.09 0.661 3.61 2.09 1.54 1.43 2.33 3.61 0.793 2.18 0.793 4.6 0 2.62-0.859 5.02-0.837 2.4-2.38 4.07-1.52 1.67-3.74 2.47-2.2 0.771-4.73 0.771-2.36 0-4.45-0.705-2.09-0.705-3.63-2.2-1.52-1.5-2.31-3.66-0.793-2.18-0.793-4.56 0-3.59 1.45-6.45 1.45-2.88 4.27-4.29 2.82-1.43 6.03-1.43zm-0.0881 2.8q-2.25 0-4.14 1.12-1.87 1.12-2.77 3.39-0.903 2.25-0.903 4.91 0 2.33 0.749 4.21 0.749 1.85 2.47 2.99 1.72 1.15 4.14 1.15 1.65 0 3.13-0.551 1.48-0.573 2.58-1.87 1.1-1.3 1.63-3.17 0.528-1.89 0.528-3.96 0-1.94-0.528-3.63-0.528-1.7-1.63-2.71-1.08-1.03-2.47-1.45-1.37-0.418-2.77-0.418z"/>
  <path d="m725 447 0.242-4.05 0.595-15.5h-2.75q0.11-1.08 0.176-2.71h2.84q0.044-2.05 0.0881-3.13 0.0661-1.1 0.286-1.96 0.242-0.881 0.683-1.48 0.462-0.617 1.26-1.12 0.815-0.506 1.87-0.727 1.08-0.242 2.47-0.242 1.83 0 4.25 0.551 0.044 1.32 0.22 2.8-2.09-0.727-3.81-0.727-0.837 0-1.54 0.22-0.705 0.22-1.15 0.595-0.418 0.352-0.705 0.947-0.264 0.595-0.374 1.41-0.0881 0.815-0.0881 1.92l-0.022 0.947h6.12q-0.11 0.947-0.198 2.71h-5.9l-0.396 11.3-0.198 8.3q-1.37-0.044-2-0.044-0.617 0-1.96 0.044z"/>
  <path d="m749 444q-0.242 1.08-0.528 2.86-1.5 0.352-2.38 0.44-0.881 0.0881-1.67 0.0881-1.96 0-3.17-0.484-1.19-0.506-1.83-1.59-0.639-1.1-0.639-2.97 0-0.242 0.022-0.859t0.22-4.29l0.528-9.87h-2.93q0.0881-0.925 0.154-2.64h2.99q0.11-1.23 0.22-4.21 2.07-0.396 3.5-0.749-0.154 3.26-0.176 4.95h6.12q-0.11 1.39-0.132 2.64h-6.1l-0.595 12.4-0.022 0.947q0 1.61 0.352 2.42 0.374 0.793 1.1 1.15 0.727 0.352 1.52 0.352 0.551 0 1.19-0.0881t2.25-0.506z"/>
  <path d="m764 447 0.286-4.03q0.0881-1.37 0.154-2.97l0.484-13.1 0.132-5.28q0.044-1.67 0.044-2.93v-1.74q5.22 0.022 9.87 0.022l5.44-0.022h3.26q-0.176 2.03-0.176 3.06-2.8-0.176-7.88-0.176l-6.47 0.044-0.33 10.4 4.23 0.0881q5.99 0 8.7-0.0881-0.132 1.63-0.132 3.02-4.07-0.0881-6.87-0.0881-2.75 0-6.1 0.0881-0.242 8.1-0.242 13.7l-2.14-0.044q-0.132 0-2.25 0.044z"/>
  <path d="m799 424q2.31 0 4.4 0.661 2.09 0.661 3.61 2.09 1.54 1.43 2.33 3.61 0.793 2.18 0.793 4.6 0 2.62-0.859 5.02-0.837 2.4-2.38 4.07-1.52 1.67-3.74 2.47-2.2 0.771-4.73 0.771-2.36 0-4.45-0.705-2.09-0.705-3.63-2.2-1.52-1.5-2.31-3.66-0.793-2.18-0.793-4.56 0-3.59 1.45-6.45 1.45-2.88 4.27-4.29 2.82-1.43 6.03-1.43zm-0.0881 2.8q-2.25 0-4.14 1.12-1.87 1.12-2.77 3.39-0.903 2.25-0.903 4.91 0 2.33 0.749 4.21 0.749 1.85 2.47 2.99 1.72 1.15 4.14 1.15 1.65 0 3.13-0.551 1.48-0.573 2.58-1.87 1.1-1.3 1.63-3.17 0.528-1.89 0.528-3.96 0-1.94-0.528-3.63-0.528-1.7-1.63-2.71-1.08-1.03-2.47-1.45-1.37-0.418-2.77-0.418z"/>
  <path d="m814 447q0.793-12.7 0.793-20.3l-0.022-2.03q1.12 0.022 1.85 0.022 0.837 0 1.87-0.022l-0.176 3.66q0.815-1.37 1.43-2.05 0.639-0.705 1.43-1.15 0.793-0.462 1.78-0.705 1.01-0.264 2.09-0.264 0.925 0 1.83 0.22 0.022 1.45 0.154 3.26-1.37-0.374-2.44-0.374-1.3 0-2.33 0.44-1.03 0.418-1.87 1.3-0.815 0.859-1.34 2.07-0.44 0.969-0.683 2.51-0.22 1.54-0.352 5.62-0.0881 2.97-0.0881 6.3v1.48q-1.19-0.044-1.92-0.044-0.661 0-2 0.044z"/>
  <path d="m830 447 0.242-3.19q0.0661-1.01 0.176-3.19l0.528-13.4q0.022-1.65 0.022-2.51 1.03 0.022 1.89 0.022 0.925 0 1.83-0.022l-0.198 4.1q0.749-1.23 1.34-1.96 0.617-0.727 1.61-1.34t2.25-0.947q1.28-0.352 2.64-0.352 0.947 0 1.87 0.22t1.7 0.617q0.793 0.396 1.34 0.903 0.573 0.506 0.903 1.1 0.352 0.595 0.705 1.72 1.34-2.53 3.35-3.55 2.03-1.01 4.51-1.01 1.59 0 3.06 0.506 1.5 0.506 2.38 1.45 0.881 0.947 1.17 1.98 0.308 1.01 0.308 2.05 0 1.06-0.154 3.17-0.154 2.11-0.352 6.45-0.198 4.32-0.22 7.2-1.17-0.044-1.83-0.044-0.705 0-2.09 0.044 0.242-2.97 0.418-6.47l0.286-5.46q0.11-1.98 0.11-3.41 0-1.28-0.264-1.98-0.264-0.727-0.859-1.3-0.573-0.573-1.43-0.859-0.859-0.308-1.96-0.308-0.881 0-1.63 0.198-0.705 0.198-1.37 0.595-0.727 0.418-1.3 1.03-0.573 0.595-0.969 1.34-0.418 0.771-0.683 1.83-0.33 1.32-0.462 3.24-0.154 2.05-0.242 5.4l-0.176 6.17q-1.28-0.044-1.92-0.044-0.595 0-2 0.044 0.22-2.73 0.352-5.62l0.264-5.33q0.11-2.47 0.11-4.21 0-1.12-0.22-1.89-0.22-0.793-0.837-1.43-0.595-0.661-1.45-0.991-0.859-0.352-1.89-0.352-1.1 0-2.09 0.396-0.991 0.374-1.83 1.12-0.837 0.749-1.41 1.85-0.573 1.08-0.903 2.86-0.308 1.76-0.506 6.17-0.176 4.4-0.176 7.42-1.41-0.044-1.94-0.044-0.573 0-2 0.044z"/>
  <path d="m868 446-0.132-1.61q0-0.264-0.176-1.67 3.39 1.48 6.25 1.48 1.5 0 2.53-0.396 1.03-0.396 1.54-1.17 0.528-0.793 0.528-1.63 0-0.462-0.154-0.925-0.132-0.462-0.418-0.881-0.286-0.44-0.859-0.947-0.551-0.528-2.33-1.96-1.76-1.43-2.69-2.22-0.903-0.815-1.56-1.65-0.639-0.859-0.947-1.72t-0.308-1.74q0-1.41 0.881-2.73 0.903-1.32 2.58-1.96 1.7-0.661 3.96-0.661 2.53 0 5.57 0.595 0.0881 1.72 0.22 3.15-2.47-1.01-4.87-1.01-1.3 0-2.42 0.352-1.1 0.33-1.63 1.01-0.506 0.683-0.506 1.5 0 0.528 0.176 1.01 0.176 0.484 0.617 1.06 0.462 0.551 1.1 1.1t2.53 2.07q1.92 1.52 2.62 2.25 0.705 0.727 1.21 1.5 0.506 0.771 0.727 1.54 0.242 0.749 0.242 1.54 0 1.54-0.925 2.86-0.903 1.32-2.71 2.05-1.81 0.727-4.05 0.727-0.947 0-2.22-0.132-1.28-0.11-2.18-0.286-0.881-0.154-2.2-0.484z"/>
  <path d="m891 441 0.154-3.06q0.11-1.78 0.242-2.51 0.132-0.727 0.352-1.23 0.242-0.528 0.771-1.23 0.749-0.991 2.66-3.13t2.47-2.88q0.573-0.771 0.991-1.61 0.418-0.859 0.418-1.81 0-1.28-0.793-2.29-0.771-1.03-2.33-1.48-1.54-0.462-3.41-0.462-1.48 0-3.06 0.242-1.59 0.22-4.23 0.903 0.44-2.03 0.595-3.28 4.21-0.661 7.73-0.661 2.88 0 5.15 0.727 2.29 0.727 3.44 2.31 1.15 1.59 1.15 3.37 0 0.793-0.198 1.7-0.198 0.881-0.859 2.05-0.639 1.17-1.67 2.4-1.03 1.23-2.29 2.53-1.23 1.3-1.76 1.92-0.528 0.617-0.837 1.12-0.286 0.484-0.44 0.947-0.154 0.462-0.286 1.21-0.11 0.727-0.198 1.85l-0.198 2.36q-0.859-0.044-1.74-0.044-0.947 0-1.81 0.044zm-0.749 6.06 0.264-3.9 2.25 0.022 2.22-0.022q-0.11 1.41-0.132 2.31-0.022 0.881-0.0881 1.59-1.32-0.044-2.2-0.044-0.903 0-2.31 0.044z"/>
  <path d="m909 440 0.462-15.8 0.132-5.62 0.022-2.11q1.43 0.022 2.11 0.022l2.03-0.022q-0.242 2.91-0.396 6.12l-0.903 17.4q-0.969-0.044-1.59-0.044-0.859 0-1.87 0.044zm-0.727 6.56 0.0881-1.28q0.044-0.506 0.0661-1.32l0.0661-1.39q1.56 0.044 2.31 0.044 0.617 0 2.2-0.044-0.0661 0.859-0.22 3.99-1.45-0.044-2.2-0.044-0.947 0-2.31 0.044z"/>
 </g>
 <g transform="translate(-1.19)" fill="#444" aria-label="Enfin Interro!">
  <path d="m243 546 1.82-24 1.32-27.8 0.816-25.3v-8.54q15.5 0.126 32.3 0.126l12.1-0.0628 18.1-0.0628-0.753 13.6-5.96-0.314q-2.45-0.126-6.78-0.188-4.33-0.0628-8.85-0.0628-9.79 0-12.7 0.0628-2.82 0-8.6 0.188l-1 22.3q8.6 0.188 17.3 0.188 6.03 0 20.3-0.377-0.502 5.71-0.879 13.7-16.8-0.188-19.2-0.188-7.41 0-18.5 0.377l-1 23.5 6.91 0.0628q3.01 0 13.8-0.126l13.6-0.251 9.1-0.439q-0.628 7.28-0.879 13.7-16.3-0.126-29.4-0.126l-20.7 0.0628z"/>
  <path d="m320 546q1.44-14.3 2.39-32 1-17.8 1.13-31.8 5.78 0.126 9.23 0.126 4.08 0 8.66-0.126l-0.691 10.7q1.95-2.76 3.39-4.39 1.51-1.63 3.77-3.2 2.32-1.57 4.9-2.51 2.64-0.942 5.84-1.51 3.26-0.565 6.78-0.565 5.59 0 10.7 1.44 5.15 1.38 8.29 4.46 3.14 3.08 4.14 6.72 1 3.64 1 7.72 0 1.69-0.188 5.4l-1.32 27.4q-0.251 5.71-0.314 12.2-4.96-0.126-8.47-0.126-4.77 0-9.6 0.126 0.502-5.46 1.26-19 0.753-13.6 0.753-18 0-4.96-1.57-7.97-1.57-3.01-4.9-4.58-3.26-1.57-7.09-1.57-3.77 0-7.03 1.44-3.26 1.44-5.65 4.21-2.51 2.82-3.89 6.97-1.44 4.39-2.13 14.5-0.628 8.98-1 24-4.83-0.126-8.73-0.126-3.95 0-9.6 0.126z"/>
  <path d="m405 546 0.753-10.4 1.88-40.8h-7.78q0.188-1.88 0.377-6.09 0.251-4.27 0.314-6.21h8.54v-2.51q0-6.72 0.565-10.2 0.565-3.58 2.07-5.84 1.57-2.26 4.33-3.89 2.82-1.69 6.15-2.26 3.33-0.628 6.84-0.628 7.16 0 15.1 2.01 0.188 7.03 0.691 12.1-6.03-2.13-11-2.13-1.95 0-3.58 0.502-1.63 0.439-2.7 1.26-1 0.816-1.69 2.13-0.691 1.32-0.942 3.14-0.251 1.76-0.251 4.08v2.32h16q-0.377 4.33-0.753 12.3h-15.1q-1.19 25-1.82 51.2-5.71-0.126-9.1-0.126-3.45 0-8.98 0.126z"/>
  <path d="m450 471q0.251-6.47 0.251-9.92v-2.01q5.71 0.126 9.29 0.126 4.9 0 9.1-0.126-0.188 1.57-0.251 3.58l-0.314 8.35q-4.77-0.126-8.79-0.126-4.02 0-9.29 0.126zm-3.39 74.8q0.942-9.42 1.32-15.8 0.628-10 1.07-23.2 0.502-13.1 0.691-24.9 6.15 0.126 9.23 0.126 2.82 0 9.17-0.126-0.879 10.9-1.44 20.8-0.502 9.92-0.753 22.7t-0.251 20.3q-5.71-0.126-9.17-0.126-3.26 0-9.86 0.126z"/>
  <path d="m480 546q1.44-14.3 2.39-32 1-17.8 1.13-31.8 5.78 0.126 9.23 0.126 4.08 0 8.66-0.126l-0.691 10.7q1.95-2.76 3.39-4.39 1.51-1.63 3.77-3.2 2.32-1.57 4.9-2.51 2.64-0.942 5.84-1.51 3.26-0.565 6.78-0.565 5.59 0 10.7 1.44 5.15 1.38 8.29 4.46 3.14 3.08 4.14 6.72 1 3.64 1 7.72 0 1.69-0.188 5.4l-1.32 27.4q-0.251 5.71-0.314 12.2-4.96-0.126-8.47-0.126-4.77 0-9.6 0.126 0.502-5.46 1.26-19 0.753-13.6 0.753-18 0-4.96-1.57-7.97-1.57-3.01-4.9-4.58-3.26-1.57-7.09-1.57-3.77 0-7.03 1.44-3.26 1.44-5.65 4.21-2.51 2.82-3.89 6.97-1.44 4.39-2.13 14.5-0.628 8.98-1 24-4.83-0.126-8.73-0.126-3.95 0-9.6 0.126z"/>
  <path d="m597 546q1.51-21.6 2.45-44.3 0.942-22.7 0.942-34.7l-0.0628-6.72 10.5 0.126q0.879 0 9.6-0.126-2.57 33-3.26 85.7l-9.23-0.126q-2.32 0-10.9 0.126z"/>
  <path d="m633 546q1.44-14.3 2.39-32 1-17.8 1.13-31.8 5.78 0.126 9.23 0.126 4.08 0 8.66-0.126l-0.691 10.7q1.95-2.76 3.39-4.39 1.51-1.63 3.77-3.2 2.32-1.57 4.9-2.51 2.64-0.942 5.84-1.51 3.26-0.565 6.78-0.565 5.59 0 10.7 1.44 5.15 1.38 8.29 4.46 3.14 3.08 4.14 6.72 1 3.64 1 7.72 0 1.69-0.188 5.4l-1.32 27.4q-0.251 5.71-0.314 12.2-4.96-0.126-8.47-0.126-4.77 0-9.6 0.126 0.502-5.46 1.26-19 0.753-13.6 0.753-18 0-4.96-1.57-7.97t-4.9-4.58q-3.26-1.57-7.09-1.57-3.77 0-7.03 1.44-3.26 1.44-5.65 4.21-2.51 2.82-3.89 6.97-1.44 4.39-2.13 14.5-0.628 8.98-1 24-4.83-0.126-8.73-0.126-3.95 0-9.6 0.126z"/>
  <path d="m755 533q-0.753 3.45-2.39 12.8-5.27 1.19-8.29 1.51-3.01 0.314-5.65 0.314-4.65 0-8.35-0.879-3.64-0.879-6.03-3.08-2.39-2.26-3.26-5.21-0.816-3.01-0.816-6.21 0-0.816 0.0628-2.2 0.0628-1.38 0.502-8.91l1.44-26.1h-9.04q0.314-3.77 0.565-12.1h9.48q0.377-3.64 0.753-12.4l7.41-1.44q2.32-0.439 8.98-2.07-0.439 8.47-0.502 15.9h15.9q-0.439 8.47-0.439 12.1h-16q-1.32 25.5-1.32 29.6 0 3.89 0.816 6.03 0.879 2.13 2.76 3.08t4.02 0.942q1.57 0 3.26-0.251 1.76-0.251 6.09-1.38z"/>
  <path d="m820 532q-0.816 3.7-2.32 13.3-6.78 1.44-11.4 1.95t-9.35 0.502q-8.22 0-14.8-1.63-6.47-1.63-11.4-5.96-4.9-4.39-7.22-10.7t-2.32-13.3q0-7.72 2.7-14.9 2.7-7.28 7.53-11.9 4.9-4.65 11.1-6.53 6.21-1.95 13-1.95 6.4 0 12.2 1.63 5.78 1.57 9.67 5.21 3.95 3.64 6.03 8.79 2.13 5.08 2.13 11.4 0 2.95-0.628 6.09l-46 0.0628q-0.126 2.32-0.126 3.7 0 4.21 1.44 7.72 1.44 3.52 4.21 5.96 2.76 2.45 6.59 3.64 3.83 1.13 7.53 1.13 4.33 0 9.35-0.942 5.08-0.942 12.1-3.2zm-40.6-25.4 29.4 0.0628q0-3.01-0.188-4.46-0.188-1.44-0.879-3.26-0.628-1.88-1.76-3.26-1.13-1.44-2.64-2.39-1.51-0.942-3.52-1.44-1.95-0.502-4.21-0.502-2.64 0-5.15 0.816-2.45 0.816-4.52 2.39-2.07 1.57-3.39 3.52-1.26 1.95-1.88 3.77-0.628 1.76-1.26 4.77z"/>
  <path d="m835 546 1.82-29.8 0.502-17.3q0.126-5.34 0.126-10.7 0-0.942-0.126-5.96 5.84 0.126 8.6 0.126 3.2 0 8.47-0.126l-0.314 8.85q2.39-3.39 4.08-5.02 1.69-1.69 3.77-2.89 2.13-1.19 4.71-1.82 2.57-0.628 5.27-0.628 2.51 0 5.15 0.628 0 5.84 0.565 14.8-3.7-1-6.72-1-3.64 0-6.47 1.13-2.76 1.07-5.02 3.33-2.2 2.2-3.64 5.46-1.19 2.64-1.76 6.84-0.502 3.26-0.879 11.2-0.314 7.91-0.314 15.6 0 2.95 0.188 7.41-4.77-0.126-8.73-0.126-3.89 0-9.29 0.126z"/>
  <path d="m885 546 1.82-29.8 0.502-17.3q0.126-5.34 0.126-10.7 0-0.942-0.126-5.96 5.84 0.126 8.6 0.126 3.2 0 8.47-0.126l-0.314 8.85q2.39-3.39 4.08-5.02 1.69-1.69 3.77-2.89 2.13-1.19 4.71-1.82 2.57-0.628 5.27-0.628 2.51 0 5.15 0.628 0 5.84 0.565 14.8-3.7-1-6.72-1-3.64 0-6.47 1.13-2.76 1.07-5.02 3.33-2.2 2.2-3.64 5.46-1.19 2.64-1.76 6.84-0.502 3.26-0.879 11.2-0.314 7.91-0.314 15.6 0 2.95 0.188 7.41-4.77-0.126-8.73-0.126-3.89 0-9.29 0.126z"/>
  <path d="m969 481q7.22 0 13.8 2.2 6.65 2.13 11.2 6.4 4.65 4.21 6.97 10.4 2.32 6.09 2.32 12.9 0 7.16-2.45 13.8-2.45 6.65-7.09 11.6-4.65 4.83-11.6 7.28-6.91 2.39-14.8 2.39-7.28 0-13.9-2.13-6.53-2.2-11.2-6.53t-7.09-10.5q-2.39-6.21-2.39-13 0-6.91 2.2-13.2t6.84-11.2q4.71-4.9 12-7.6 7.28-2.7 15.1-2.7zm0 12.9q-5.46 0-9.79 2.7-4.27 2.64-6.4 7.91-2.07 5.27-2.07 11.5 0 5.46 1.69 9.73 1.76 4.27 5.65 6.91 3.95 2.64 9.35 2.64 5.52 0 9.67-2.7 4.21-2.76 6.28-8.04 2.13-5.34 2.13-11.7 0-5.21-1.63-9.48-1.63-4.27-5.52-6.84-3.83-2.57-9.35-2.57z"/>
  <path d="m1020 521 0.691-22.1 0.942-38.5q6.03 0.126 9.48 0.126 2.7 0 9.1-0.126l-1.32 17.3-2.64 43.4q-4.52-0.126-7.34-0.126-4.02 0-8.91 0.126zm-2.51 25 0.377-5.21q0.188-2.26 0.314-4.77l0.314-6.34q7.16 0.126 9.86 0.126 1.95 0 9.35-0.126-0.502 7.03-0.879 16.3l-9.42-0.126q-2.82 0-9.92 0.126z"/>
 </g>
</svg>
